<svg height="1134" width="720" xmlns="http://www.w3.org/2000/svg">
<rect height="1134" fill="#555" width="720"></rect>
<text fill="#7f7" font-family="Courier New" font-size="12" xml:space="preserve">
<tspan x="10" y="26">└─┬ check-dependencies@1.0.1 </tspan>
<tspan x="10" y="42">  ├─┬ bower-config@1.4.0 </tspan>
<tspan x="10" y="58">  │ ├── graceful-fs@4.1.11 </tspan>
<tspan x="10" y="74">  │ ├── mout@1.0.0 </tspan>
<tspan x="10" y="90">  │ ├─┬ optimist@0.6.1 </tspan>
<tspan x="10" y="106">  │ │ ├── minimist@0.0.10 </tspan>
<tspan x="10" y="122">  │ │ └── wordwrap@0.0.3 </tspan>
<tspan x="10" y="138">  │ ├─┬ osenv@0.1.4 </tspan>
<tspan x="10" y="154">  │ │ ├── os-homedir@1.0.2 </tspan>
<tspan x="10" y="170">  │ │ └── os-tmpdir@1.0.2 </tspan>
<tspan x="10" y="186">  │ └── untildify@2.1.0 </tspan>
<tspan x="10" y="202">  ├─┬ chalk@1.1.3 </tspan>
<tspan x="10" y="218">  │ ├── ansi-styles@2.2.1 </tspan>
<tspan x="10" y="234">  │ ├── escape-string-regexp@1.0.5 </tspan>
<tspan x="10" y="250">  │ ├─┬ has-ansi@2.0.0 </tspan>
<tspan x="10" y="266">  │ │ └── ansi-regex@2.1.1 </tspan>
<tspan x="10" y="282">  │ ├── strip-ansi@3.0.1 </tspan>
<tspan x="10" y="298">  │ └── supports-color@2.0.0 </tspan>
<tspan x="10" y="314">  ├─┬ findup-sync@0.4.3 </tspan>
<tspan x="10" y="330">  │ ├─┬ detect-file@0.1.0 </tspan>
<tspan x="10" y="346">  │ │ └── fs-exists-sync@0.1.0 </tspan>
<tspan x="10" y="362">  │ ├─┬ is-glob@2.0.1 </tspan>
<tspan x="10" y="378">  │ │ └── is-extglob@1.0.0 </tspan>
<tspan x="10" y="394">  │ ├─┬ micromatch@2.3.11 </tspan>
<tspan x="10" y="410">  │ │ ├─┬ arr-diff@2.0.0 </tspan>
<tspan x="10" y="426">  │ │ │ └── arr-flatten@1.0.1 </tspan>
<tspan x="10" y="442">  │ │ ├── array-unique@0.2.1 </tspan>
<tspan x="10" y="458">  │ │ ├─┬ braces@1.8.5 </tspan>
<tspan x="10" y="474">  │ │ │ ├─┬ expand-range@1.8.2 </tspan>
<tspan x="10" y="490">  │ │ │ │ └─┬ fill-range@2.2.3 </tspan>
<tspan x="10" y="506">  │ │ │ │   ├── is-number@2.1.0 </tspan>
<tspan x="10" y="522">  │ │ │ │   ├─┬ isobject@2.1.0 </tspan>
<tspan x="10" y="538">  │ │ │ │   │ └── isarray@1.0.0 </tspan>
<tspan x="10" y="554">  │ │ │ │   ├── randomatic@1.1.6 </tspan>
<tspan x="10" y="570">  │ │ │ │   └── repeat-string@1.6.1 </tspan>
<tspan x="10" y="586">  │ │ │ ├── preserve@0.2.0 </tspan>
<tspan x="10" y="602">  │ │ │ └── repeat-element@1.1.2 </tspan>
<tspan x="10" y="618">  │ │ ├─┬ expand-brackets@0.1.5 </tspan>
<tspan x="10" y="634">  │ │ │ └── is-posix-bracket@0.1.1 </tspan>
<tspan x="10" y="650">  │ │ ├── extglob@0.3.2 </tspan>
<tspan x="10" y="666">  │ │ ├── filename-regex@2.0.0 </tspan>
<tspan x="10" y="682">  │ │ ├─┬ kind-of@3.1.0 </tspan>
<tspan x="10" y="698">  │ │ │ └── is-buffer@1.1.5 </tspan>
<tspan x="10" y="714">  │ │ ├─┬ normalize-path@2.1.1 </tspan>
<tspan x="10" y="730">  │ │ │ └── remove-trailing-separator@1.0.1 </tspan>
<tspan x="10" y="746">  │ │ ├─┬ object.omit@2.0.1 </tspan>
<tspan x="10" y="762">  │ │ │ ├─┬ for-own@0.1.5 </tspan>
<tspan x="10" y="778">  │ │ │ │ └── for-in@1.0.2 </tspan>
<tspan x="10" y="794">  │ │ │ └── is-extendable@0.1.1 </tspan>
<tspan x="10" y="810">  │ │ ├─┬ parse-glob@3.0.4 </tspan>
<tspan x="10" y="826">  │ │ │ ├─┬ glob-base@0.3.0 </tspan>
<tspan x="10" y="842">  │ │ │ │ └── glob-parent@2.0.0 </tspan>
<tspan x="10" y="858">  │ │ │ └── is-dotfile@1.0.2 </tspan>
<tspan x="10" y="874">  │ │ └─┬ regex-cache@0.4.3 </tspan>
<tspan x="10" y="890">  │ │   ├── is-equal-shallow@0.1.3 </tspan>
<tspan x="10" y="906">  │ │   └── is-primitive@2.0.0 </tspan>
<tspan x="10" y="922">  │ └─┬ resolve-dir@0.1.1 </tspan>
<tspan x="10" y="938">  │   ├── expand-tilde@1.2.2 </tspan>
<tspan x="10" y="954">  │   └─┬ global-modules@0.2.3 </tspan>
<tspan x="10" y="970">  │     ├─┬ global-prefix@0.1.5 </tspan>
<tspan x="10" y="986">  │     │ ├─┬ homedir-polyfill@1.0.1 </tspan>
<tspan x="10" y="1002">  │     │ │ └── parse-passwd@1.0.0 </tspan>
<tspan x="10" y="1018">  │     │ ├── ini@1.3.4 </tspan>
<tspan x="10" y="1034">  │     │ └─┬ which@1.2.14 </tspan>
<tspan x="10" y="1050">  │     │   └── isexe@2.0.0 </tspan>
<tspan x="10" y="1066">  │     └── is-windows@0.2.0 </tspan>
<tspan x="10" y="1082">  ├── lodash.camelcase@4.3.0 </tspan>
<tspan x="10" y="1098">  ├── minimist@1.2.0 </tspan>
<tspan x="10" y="1114">  └── semver@5.3.0</tspan>
</text>
</svg>
